<svg width="836" height="254" viewBox="0 0 836 254" fill="none" xmlns="http://www.w3.org/2000/svg">
<line y1="-2.5" x2="119.891" y2="-2.5" transform="matrix(0.831819 -0.555046 0.620421 0.784269 60.0625 194.672)" stroke="white" stroke-width="5"/>
<line x1="294.494" y1="148.62" x2="294.494" y2="178.659" stroke="white" stroke-width="5"/>
<line x1="170" y1="116.445" x2="291.994" y2="116.445" stroke="white" stroke-width="5"/>
<path d="M43.1924 24.4673L296.808 206.034" stroke="white" stroke-width="5"/>
<ellipse cx="43.1924" cy="39.6686" rx="43.1924" ry="39.6686" fill="#7F818E"/>
<ellipse cx="296.017" cy="119.005" rx="43.1924" ry="39.6686" fill="#7F818E"/>
<ellipse cx="296.808" cy="214.332" rx="43.1924" ry="39.6686" fill="#7F818E"/>
<ellipse cx="169.934" cy="115.251" rx="32.7735" ry="30.0997" fill="#7F818E"/>
<ellipse cx="52.292" cy="214.332" rx="43.1924" ry="39.6686" fill="#7F818E"/>
<path d="M436.68 190.848V109.824H472.136C479.219 109.824 485.149 110.421 489.928 111.616C494.707 112.725 498.547 114.731 501.448 117.632C504.349 120.533 506.44 124.587 507.72 129.792C509 134.912 509.64 141.525 509.64 149.632C509.64 158.08 509 164.992 507.72 170.368C506.44 175.744 504.349 179.925 501.448 182.912C498.547 185.899 494.707 187.989 489.928 189.184C485.149 190.293 479.219 190.848 472.136 190.848H436.68ZM469.192 127.104H457.16V173.568H469.192C474.141 173.568 478.024 173.013 480.84 171.904C483.741 170.795 485.789 168.533 486.984 165.12C488.264 161.707 488.904 156.544 488.904 149.632C488.904 143.061 488.264 138.197 486.984 135.04C485.789 131.797 483.741 129.664 480.84 128.64C478.024 127.616 474.141 127.104 469.192 127.104ZM517.95 160.128C517.95 148.693 520.382 140.459 525.246 135.424C530.11 130.389 538.345 127.872 549.95 127.872C557.715 127.872 563.945 128.981 568.638 131.2C573.331 133.419 576.702 136.917 578.75 141.696C580.883 146.389 581.95 152.533 581.95 160.128C581.95 167.637 580.883 173.739 578.75 178.432C576.702 183.125 573.331 186.581 568.638 188.8C563.945 190.933 557.715 192 549.95 192C538.345 192 530.11 189.525 525.246 184.576C520.382 179.541 517.95 171.392 517.95 160.128ZM549.95 174.464C554.899 174.464 558.227 173.397 559.934 171.264C561.726 169.045 562.622 165.205 562.622 159.744C562.622 154.539 561.726 150.827 559.934 148.608C558.227 146.304 554.899 145.152 549.95 145.152C545.171 145.152 541.843 146.304 539.966 148.608C538.174 150.827 537.278 154.539 537.278 159.744C537.278 165.205 538.174 169.045 539.966 171.264C541.843 173.397 545.171 174.464 549.95 174.464ZM612.133 105.344C612.389 108.416 612.517 110.976 612.517 113.024C612.517 114.219 612.474 115.456 612.389 116.736C612.389 117.931 612.304 119.296 612.133 120.832C610.341 121.173 608.592 121.429 606.885 121.6C605.178 121.771 603.472 121.856 601.765 121.856C600.144 121.856 598.48 121.771 596.773 121.6C595.152 121.429 593.488 121.173 591.781 120.832C591.61 119.381 591.482 118.059 591.397 116.864C591.312 115.584 591.269 114.347 591.269 113.152C591.269 112.043 591.312 110.848 591.397 109.568C591.482 108.288 591.61 106.88 591.781 105.344C593.488 104.917 595.194 104.661 596.901 104.576C598.693 104.405 600.442 104.32 602.149 104.32C603.77 104.32 605.392 104.405 607.013 104.576C608.72 104.661 610.426 104.917 612.133 105.344ZM612.133 190.848H591.653V128.512H612.133V190.848ZM621.185 145.152V128.512H630.273V125.312C630.273 116.864 632.236 110.805 636.161 107.136C640.086 103.381 645.932 101.504 653.697 101.504C656.428 101.504 658.945 101.76 661.249 102.272C663.553 102.699 665.558 103.211 667.265 103.808V118.144L666.881 118.4C665.345 118.229 663.809 118.101 662.273 118.016C660.737 117.845 659.286 117.76 657.921 117.76C655.02 117.76 652.972 118.315 651.777 119.424C650.668 120.448 650.113 122.069 650.113 124.288V128.512H667.265V145.152H650.113V190.848H630.273V145.152H621.185ZM674.739 173.184C681.395 175.061 688.776 176 696.883 176C700.808 176 703.752 175.872 705.715 175.616C707.678 175.36 709 174.933 709.683 174.336C710.366 173.739 710.707 172.928 710.707 171.904C710.707 170.453 710.152 169.557 709.043 169.216C708.019 168.875 705.928 168.405 702.771 167.808L692.659 165.888C686.174 164.608 681.48 162.603 678.579 159.872C675.763 157.056 674.355 152.875 674.355 147.328C674.355 139.819 676.574 134.699 681.011 131.968C685.534 129.237 692.702 127.872 702.515 127.872C708.403 127.872 713.566 128.213 718.003 128.896C722.526 129.493 726.28 130.261 729.267 131.2L729.011 146.688L728.627 147.072C721.715 144.853 714.163 143.744 705.971 143.744C701.96 143.744 699.144 144.043 697.523 144.64C695.987 145.152 695.219 146.219 695.219 147.84C695.219 148.693 695.432 149.376 695.859 149.888C696.371 150.4 697.48 150.912 699.187 151.424C700.894 151.851 703.582 152.405 707.251 153.088L716.595 154.88C721.8 155.989 725.64 157.824 728.115 160.384C730.59 162.944 731.827 166.997 731.827 172.544C731.827 177.408 730.931 181.291 729.139 184.192C727.347 187.008 724.318 189.013 720.051 190.208C715.87 191.403 710.067 192 702.643 192C697.011 192 691.806 191.744 687.027 191.232C682.334 190.635 678.11 189.952 674.355 189.184V173.44L674.739 173.184Z" fill="#547B53"/>
</svg>
