<svg width="638" height="172" viewBox="0 0 638 172" fill="none" xmlns="http://www.w3.org/2000/svg">
<path d="M319.352 77.2C319.352 83.4293 318.371 89.2747 316.408 94.736C314.445 100.112 311.629 104.848 307.96 108.944C304.376 113.04 300.024 116.24 294.904 118.544C289.869 120.848 284.28 122 278.136 122H232.952V109.2H278.136C284.024 109.2 289.101 107.749 293.368 104.848C297.635 101.947 300.877 98.1067 303.096 93.328C305.4 88.464 306.552 83.088 306.552 77.2C306.552 71.312 305.4 65.936 303.096 61.072C300.877 56.208 297.635 52.368 293.368 49.552C289.101 46.6507 284.024 45.2 278.136 45.2H226.552V122H213.752V32.4H278.136C284.28 32.4 289.869 33.552 294.904 35.856C300.024 38.16 304.376 41.4027 307.96 45.584C311.629 49.68 314.445 54.4587 316.408 59.92C318.371 65.296 319.352 71.056 319.352 77.2ZM419.336 86.8C419.336 91.664 418.44 96.2293 416.648 100.496C414.856 104.677 412.339 108.389 409.096 111.632C405.939 114.875 402.227 117.435 397.96 119.312C393.779 121.104 389.256 122 384.392 122H364.68C359.816 122 355.251 121.104 350.984 119.312C346.803 117.435 343.091 114.875 339.848 111.632C336.691 108.389 334.216 104.677 332.424 100.496C330.632 96.2293 329.736 91.664 329.736 86.8C329.736 81.936 330.632 77.4133 332.424 73.232C334.216 68.9653 336.691 65.2107 339.848 61.968C343.091 58.7253 346.803 56.208 350.984 54.416C355.251 52.5387 359.816 51.6 364.68 51.6H384.392C389.256 51.6 393.779 52.5387 397.96 54.416C402.227 56.208 405.939 58.7253 409.096 61.968C412.339 65.2107 414.856 68.9653 416.648 73.232C418.44 77.4133 419.336 81.936 419.336 86.8ZM406.536 86.8C406.536 82.704 405.555 78.992 403.592 75.664C401.629 72.2507 398.941 69.52 395.528 67.472C392.2 65.424 388.488 64.4 384.392 64.4H364.68C360.584 64.4 356.872 65.424 353.544 67.472C350.216 69.52 347.528 72.2507 345.48 75.664C343.517 78.992 342.536 82.704 342.536 86.8C342.536 90.896 343.517 94.6507 345.48 98.064C347.528 101.392 350.216 104.08 353.544 106.128C356.872 108.176 360.584 109.2 364.68 109.2H384.392C388.488 109.2 392.2 108.176 395.528 106.128C398.941 104.08 401.629 101.392 403.592 98.064C405.555 94.6507 406.536 90.896 406.536 86.8ZM449.341 35.6C449.341 38.2453 448.402 40.5067 446.525 42.384C444.648 44.2613 442.386 45.2 439.741 45.2C437.096 45.2 434.834 44.2613 432.957 42.384C431.08 40.5067 430.141 38.2453 430.141 35.6C430.141 32.9547 431.08 30.6933 432.957 28.816C434.834 26.9387 437.096 26 439.741 26C442.386 26 444.648 26.9387 446.525 28.816C448.402 30.6933 449.341 32.9547 449.341 35.6ZM446.141 122H433.341V51.6H446.141V122ZM534.991 38.8H499.535C495.439 38.8 491.727 39.824 488.399 41.872C485.071 43.92 482.383 46.6507 480.335 50.064C478.372 53.392 477.391 57.104 477.391 61.2V122H464.591V58C464.591 53.4773 465.53 49.296 467.407 45.456C469.284 41.5307 471.844 38.16 475.087 35.344C478.415 32.4427 482.17 30.1813 486.351 28.56C490.532 26.8533 494.927 26 499.535 26H534.991V38.8ZM534.991 70.8H483.791V58H534.991V70.8ZM619.688 99.6C619.688 103.781 618.664 107.579 616.616 110.992C614.653 114.32 611.965 117.008 608.552 119.056C605.224 121.019 601.469 122 597.288 122H542.888V109.2H597.288C599.933 109.2 602.195 108.261 604.072 106.384C605.949 104.507 606.888 102.245 606.888 99.6C606.888 96.9547 605.949 94.6933 604.072 92.816C602.195 90.9387 599.933 90 597.288 90H562.088C558.589 90 555.347 89.1467 552.36 87.44C549.459 85.7333 547.155 83.4293 545.448 80.528C543.741 77.5413 542.888 74.2987 542.888 70.8C542.888 67.216 543.741 63.9733 545.448 61.072C547.155 58.1707 549.459 55.8667 552.36 54.16C555.347 52.4533 558.589 51.6 562.088 51.6H613.288V64.4H562.088C560.296 64.4 558.76 65.04 557.48 66.32C556.285 67.5147 555.688 69.008 555.688 70.8C555.688 72.592 556.285 74.128 557.48 75.408C558.76 76.6027 560.296 77.2 562.088 77.2H597.288C601.469 77.2 605.224 78.224 608.552 80.272C611.965 82.2347 614.653 84.9227 616.616 88.336C618.664 91.664 619.688 95.4187 619.688 99.6Z" fill="#060073"/>
<path d="M150 77C150 118.421 116.421 152 75 152C33.5786 152 0 118.421 0 77C0 35.5786 33.5786 2 75 2C116.421 2 150 35.5786 150 77ZM24.8355 77C24.8355 104.705 47.2949 127.164 75 127.164C102.705 127.164 125.164 104.705 125.164 77C125.164 49.2949 102.705 26.8355 75 26.8355C47.2949 26.8355 24.8355 49.2949 24.8355 77Z" fill="url(#paint0_radial_249_91)"/>
<circle cx="150" cy="152" r="20" fill="#969DB0"/>
<rect x="52" y="55" width="11" height="45" rx="5.5" fill="#26282D"/>
<rect x="69" y="65" width="11" height="35" rx="5.5" fill="#26282D"/>
<rect x="86" y="75" width="11" height="25" rx="5.5" fill="#26282D"/>
<defs>
<radialGradient id="paint0_radial_249_91" cx="0" cy="0" r="1" gradientUnits="userSpaceOnUse" gradientTransform="translate(75 77) rotate(90) scale(75)">
<stop stop-color="#3A41D3"/>
<stop offset="1" stop-color="#8185D1"/>
</radialGradient>
</defs>
</svg>
